<svg width="512" height="512" viewBox="0 0 512 512" fill="none" xmlns="http://www.w3.org/2000/svg">
<rect width="512" height="512" fill="#FBBF24"/>
<path d="M256 128C181.301 128 128 181.301 128 256C128 330.699 181.301 384 256 384C330.699 384 384 330.699 384 256C384 181.301 330.699 128 256 128ZM256 358.4C195.419 358.4 153.6 316.581 153.6 256C153.6 195.419 195.419 153.6 256 153.6C316.581 153.6 358.4 195.419 358.4 256C358.4 316.581 316.581 358.4 256 358.4Z" fill="white"/>
<path d="M265.6 192H246.4V265.6L304.64 304.64L314.88 289.28L265.6 253.44V192Z" fill="white"/>
</svg>
