<svg width="192" height="192" viewBox="0 0 192 192" fill="none" xmlns="http://www.w3.org/2000/svg">
<rect width="192" height="192" fill="#FBBF24"/>
<path d="M96 48C69.49 48 48 69.49 48 96C48 122.51 69.49 144 96 144C122.51 144 144 122.51 144 96C144 69.49 122.51 48 96 48ZM96 134.4C75.282 134.4 57.6 116.718 57.6 96C57.6 75.282 75.282 57.6 96 57.6C116.718 57.6 134.4 75.282 134.4 96C134.4 116.718 116.718 134.4 96 134.4Z" fill="white"/>
<path d="M99.84 72H92.16V99.84L114.24 114.24L118.08 108.48L99.84 95.04V72Z" fill="white"/>
</svg>
